<mxfile host="app.diagrams.net" modified="2024-01-25T16:18:00.039Z" agent="Mozilla/5.0 (Windows NT 10.0; Win64; x64) AppleWebKit/537.36 (KHTML, like Gecko) Chrome/120.0.0.0 Safari/537.36" version="23.0.2" etag="l5_d_Mht3L1gkRi32I2Q" type="github">
  <diagram name="PÃ¡gina-1" id="kMyCryzCjlZtuE0b1COW">
    <mxGraphModel>
      <root>
        <mxCell id="0" />
        <mxCell id="1" parent="0" />
      </root>
    </mxGraphModel>
  </diagram>
</mxfile>
